<svg xmlns="http://www.w3.org/2000/svg" viewBox="0 0 1130.084 194.4">
  <g id="Layer_2" data-name="Layer 2">
    <g id="Layer_1-2" data-name="Layer 1">
      <path d="M63.3,1.8h17L91.6,47.2h.2L106.6,1.8h14.5l14.7,46.6h.2L147.9,1.8h15.8L143,72.6H129.1l-15.6-49h-.2l-15.6,49H84.3Zm107.4,0h15.6V28.2h30.3V1.8h15.6V72.6H216.6V42H186.3V72.6H170.7Zm99.2,0h12.9l30.8,70.8H296l-6.1-15H262.4l-5.9,15H239.3Zm6,20.6-8.6,22h17.3Zm49.3-6.8H305V1.8h56V15.6H340.8v57H325.2Zm65.9-13.8h17l11.3,45.4h.2L434.4,1.8h14.5l14.7,46.6h.2l11.9-46.6h15.8l-20.7,70.8H456.9l-15.6-49h-.2l-15.6,49h-13.4Zm103.6,35.4a40,40,0,0,1,2.85-15.4,33.773,33.773,0,0,1,7.95-11.75,35.03,35.03,0,0,1,12.1-7.45,46.3,46.3,0,0,1,30.6,0,35.03,35.03,0,0,1,12.1,7.45,33.773,33.773,0,0,1,7.95,11.75,39.965,39.965,0,0,1,2.85,15.4,39.968,39.968,0,0,1-2.85,15.4,33.782,33.782,0,0,1-7.95,11.75,35.03,35.03,0,0,1-12.1,7.45,46.334,46.334,0,0,1-30.6,0,35.03,35.03,0,0,1-12.1-7.45,33.782,33.782,0,0,1-7.95-11.75A40.006,40.006,0,0,1,494.694,37.2Zm16.2,0a25.948,25.948,0,0,0,1.549,9.151,20.924,20.924,0,0,0,4.451,7.2,20.289,20.289,0,0,0,6.949,4.75,24.939,24.939,0,0,0,18.1,0,20.307,20.307,0,0,0,6.951-4.75,20.98,20.98,0,0,0,4.449-7.2A25.971,25.971,0,0,0,554.9,37.2a26.089,26.089,0,0,0-1.551-9.1,20.9,20.9,0,0,0-4.449-7.25,20.307,20.307,0,0,0-6.951-4.75,24.925,24.925,0,0,0-18.1,0,20.289,20.289,0,0,0-6.949,4.75,20.843,20.843,0,0,0-4.451,7.25A26.065,26.065,0,0,0,510.9,37.2Zm130.5,8.1a34.152,34.152,0,0,1-1.9,11.6,25.52,25.52,0,0,1-5.65,9.2,25.873,25.873,0,0,1-9.35,6.1,39.214,39.214,0,0,1-25.9,0,25.856,25.856,0,0,1-9.35-6.1,25.493,25.493,0,0,1-5.65-9.2,34.128,34.128,0,0,1-1.9-11.6V1.8h15.6V44.7a17.242,17.242,0,0,0,1.05,6.1,14.527,14.527,0,0,0,2.95,4.849,13.361,13.361,0,0,0,4.55,3.2,14.271,14.271,0,0,0,5.75,1.15,13.937,13.937,0,0,0,5.7-1.15,13.527,13.527,0,0,0,4.5-3.2,14.56,14.56,0,0,0,2.95-4.849,17.242,17.242,0,0,0,1.05-6.1V1.8h15.6Zm15-43.5h15.6V58.2h28.9V72.6h-44.5Zm53.1,0h23.4a66.873,66.873,0,0,1,16.149,1.9,36.991,36.991,0,0,1,13.351,6.151A30.145,30.145,0,0,1,771.441,20.9q3.349,6.8,3.35,16.5a33.672,33.672,0,0,1-3.25,15.151,32.579,32.579,0,0,1-8.75,11,38.665,38.665,0,0,1-12.7,6.75,49.3,49.3,0,0,1-15.1,2.3h-25.5Zm15.6,56.4h8.1a43.556,43.556,0,0,0,10.05-1.1,21.476,21.476,0,0,0,8.05-3.651,17.509,17.509,0,0,0,5.351-6.7,23.775,23.775,0,0,0,1.949-10.15,19.8,19.8,0,0,0-1.949-9.05,18.119,18.119,0,0,0-5.25-6.351,23.074,23.074,0,0,0-7.75-3.75,34.447,34.447,0,0,0-9.351-1.25h-9.2Zm107.3-15.8-26.6-40.6h19.4l15,26.5,15.9-26.5h18.5l-26.6,40.6V72.6h-15.6Zm43.6-5.2a39.965,39.965,0,0,1,2.851-15.4,33.759,33.759,0,0,1,7.95-11.75,35.011,35.011,0,0,1,12.1-7.45,46.3,46.3,0,0,1,30.6,0,35.043,35.043,0,0,1,12.1,7.45,33.786,33.786,0,0,1,7.95,11.75,40,40,0,0,1,2.85,15.4,40.006,40.006,0,0,1-2.85,15.4,33.8,33.8,0,0,1-7.95,11.75,35.043,35.043,0,0,1-12.1,7.45,46.331,46.331,0,0,1-30.6,0,35.011,35.011,0,0,1-12.1-7.45,33.768,33.768,0,0,1-7.95-11.75A39.968,39.968,0,0,1,875.988,37.2Zm16.2,0a25.948,25.948,0,0,0,1.55,9.151,20.936,20.936,0,0,0,4.45,7.2,20.288,20.288,0,0,0,6.951,4.75,24.936,24.936,0,0,0,18.1,0,20.3,20.3,0,0,0,6.95-4.75,20.984,20.984,0,0,0,4.451-7.2,25.971,25.971,0,0,0,1.549-9.151,26.088,26.088,0,0,0-1.549-9.1,20.9,20.9,0,0,0-4.451-7.25,20.3,20.3,0,0,0-6.95-4.75,24.923,24.923,0,0,0-18.1,0,20.288,20.288,0,0,0-6.951,4.75,20.856,20.856,0,0,0-4.45,7.25A26.066,26.066,0,0,0,892.188,37.2Zm130.5,8.1a34.152,34.152,0,0,1-1.9,11.6,25.52,25.52,0,0,1-5.65,9.2,25.873,25.873,0,0,1-9.35,6.1,39.214,39.214,0,0,1-25.9,0,25.856,25.856,0,0,1-9.35-6.1,25.493,25.493,0,0,1-5.65-9.2,34.128,34.128,0,0,1-1.9-11.6V1.8h15.6V44.7a17.242,17.242,0,0,0,1.05,6.1,14.527,14.527,0,0,0,2.95,4.849,13.361,13.361,0,0,0,4.55,3.2,14.271,14.271,0,0,0,5.75,1.15,13.937,13.937,0,0,0,5.7-1.15,13.527,13.527,0,0,0,4.5-3.2,14.56,14.56,0,0,0,2.95-4.849,17.242,17.242,0,0,0,1.05-6.1V1.8h15.6ZM0,121.8H15.6v56.4H44.5v14.4H0Zm52.9,0H68.5v70.8H52.9Zm30.4,0H98.9v29.4l27.5-29.4h20.4l-31.5,32.9,34.2,37.9H127.7L98.9,159v33.6H83.3Zm72.2,0h48.1v14.4H171.1v13.2h30.7v14.4H171.1v14.4h34.3v14.4H155.5Zm105.7,13.8H241V121.8h56v13.8H276.8v57h-15.6Zm39.9,21.6a40,40,0,0,1,2.849-15.4,33.775,33.775,0,0,1,7.951-11.75,35.016,35.016,0,0,1,12.1-7.45,46.32,46.32,0,0,1,30.6,0,35.025,35.025,0,0,1,12.1,7.45,33.775,33.775,0,0,1,7.951,11.75,43.046,43.046,0,0,1,0,30.8,33.784,33.784,0,0,1-7.951,11.75,35.025,35.025,0,0,1-12.1,7.45,46.337,46.337,0,0,1-30.6,0,35.016,35.016,0,0,1-12.1-7.45,33.784,33.784,0,0,1-7.951-11.75A40.005,40.005,0,0,1,301.094,157.2Zm16.2,0a25.948,25.948,0,0,0,1.55,9.151,20.906,20.906,0,0,0,4.45,7.2,20.3,20.3,0,0,0,6.949,4.75,24.942,24.942,0,0,0,18.1,0,20.313,20.313,0,0,0,6.95-4.75,20.964,20.964,0,0,0,4.449-7.2,27.618,27.618,0,0,0,0-18.25,20.883,20.883,0,0,0-4.449-7.25,20.327,20.327,0,0,0-6.95-4.75,24.928,24.928,0,0,0-18.1,0,20.313,20.313,0,0,0-6.949,4.75,20.826,20.826,0,0,0-4.45,7.25A26.066,26.066,0,0,0,317.294,157.2Zm101-35.4h15.6v56.4h28.9v14.4h-44.5Zm53.7,0h48.1v14.4h-32.5v13.2h30.7v14.4h-30.7v14.4h34.3v14.4h-49.9Zm85.7,0h12.9l30.8,70.8h-17.6l-6.1-15h-27.5l-5.9,15h-17.2Zm6,20.6-8.6,22h17.3Zm44.8-20.6h27.4a48.293,48.293,0,0,1,10.25,1.05,24.341,24.341,0,0,1,8.5,3.5,17.461,17.461,0,0,1,5.8,6.6,22.351,22.351,0,0,1,2.151,10.351,20.774,20.774,0,0,1-3.9,12.75q-3.9,5.25-11.4,6.649l18,29.9h-18.7l-14.8-28.3h-7.7v28.3h-15.6Zm15.6,29.3h9.2q2.1,0,4.45-.151a13.916,13.916,0,0,0,4.25-.9,7.351,7.351,0,0,0,3.15-2.351,7.151,7.151,0,0,0,1.25-4.5,7.484,7.484,0,0,0-1.1-4.3,7.365,7.365,0,0,0-2.8-2.45,12.483,12.483,0,0,0-3.9-1.149,31.826,31.826,0,0,0-4.3-.3h-10.2Zm49.2-29.3h21.2l30.1,49.2h.2V121.8h15.6v70.8h-20.4l-30.9-50.4h-.2v50.4h-15.6Zm134.4,0h12.9l30.8,70.8h-17.6l-6.1-15h-27.5l-5.9,15h-17.2Zm6,20.6-8.6,22h17.3Zm44.8-20.6h26.4a66.978,66.978,0,0,1,9.25.649,25.3,25.3,0,0,1,8.349,2.6,16,16,0,0,1,6,5.45q2.3,3.5,2.3,9.3a14.854,14.854,0,0,1-3.349,9.95,18.418,18.418,0,0,1-8.851,5.649v.2a20.252,20.252,0,0,1,6.351,1.95,16.979,16.979,0,0,1,4.9,3.7,15.782,15.782,0,0,1,3.15,5.25,18.453,18.453,0,0,1,1.1,6.4,17.026,17.026,0,0,1-2.4,9.351,18.871,18.871,0,0,1-6.2,6.05,27.174,27.174,0,0,1-8.549,3.3,45.757,45.757,0,0,1-9.451,1h-29Zm15.6,28.3h11.3a15.814,15.814,0,0,0,3.55-.4,9.774,9.774,0,0,0,3.149-1.3,6.745,6.745,0,0,0,2.25-2.4,7.2,7.2,0,0,0,.851-3.6,6.535,6.535,0,0,0-.951-3.649,6.625,6.625,0,0,0-2.45-2.25,11.715,11.715,0,0,0-3.4-1.15,20.448,20.448,0,0,0-3.7-.35h-10.6Zm0,29.3h14a17.217,17.217,0,0,0,3.65-.4,9.641,9.641,0,0,0,3.35-1.4,7.969,7.969,0,0,0,2.45-2.6,7.513,7.513,0,0,0,.95-3.9,6.257,6.257,0,0,0-1.25-4.05,7.955,7.955,0,0,0-3.15-2.351,16.2,16.2,0,0,0-4.1-1.1,30.294,30.294,0,0,0-4.1-.3h-11.8Zm45.4-22.2a40,40,0,0,1,2.85-15.4,33.773,33.773,0,0,1,7.95-11.75,35.03,35.03,0,0,1,12.1-7.45,46.317,46.317,0,0,1,30.6,0,35.03,35.03,0,0,1,12.1,7.45,33.773,33.773,0,0,1,7.95,11.75,43.032,43.032,0,0,1,0,30.8,33.782,33.782,0,0,1-7.95,11.75,35.03,35.03,0,0,1-12.1,7.45,46.334,46.334,0,0,1-30.6,0,35.03,35.03,0,0,1-12.1-7.45,33.782,33.782,0,0,1-7.95-11.75A40.006,40.006,0,0,1,919.485,157.2Zm16.2,0a25.948,25.948,0,0,0,1.549,9.151,20.924,20.924,0,0,0,4.451,7.2,20.289,20.289,0,0,0,6.949,4.75,24.939,24.939,0,0,0,18.1,0,20.307,20.307,0,0,0,6.951-4.75,20.98,20.98,0,0,0,4.449-7.2,27.618,27.618,0,0,0,0-18.25,20.9,20.9,0,0,0-4.449-7.25,20.321,20.321,0,0,0-6.951-4.75,24.925,24.925,0,0,0-18.1,0,20.3,20.3,0,0,0-6.949,4.75,20.843,20.843,0,0,0-4.451,7.25A26.065,26.065,0,0,0,935.686,157.2Zm130.5,8.1a34.152,34.152,0,0,1-1.9,11.6,25.5,25.5,0,0,1-5.649,9.2,25.868,25.868,0,0,1-9.351,6.1,39.211,39.211,0,0,1-25.9,0,25.86,25.86,0,0,1-9.351-6.1,25.49,25.49,0,0,1-5.649-9.2,34.1,34.1,0,0,1-1.9-11.6V121.8h15.6v42.9a17.242,17.242,0,0,0,1.051,6.1,14.525,14.525,0,0,0,2.949,4.849,13.355,13.355,0,0,0,4.551,3.2,14.271,14.271,0,0,0,5.75,1.15,13.932,13.932,0,0,0,5.7-1.15,13.506,13.506,0,0,0,4.5-3.2,14.56,14.56,0,0,0,2.95-4.849,17.242,17.242,0,0,0,1.05-6.1V121.8h15.6Zm28.1-29.7h-20.2V121.8h56v13.8h-20.2v57h-15.6Z"/>
    </g>
  </g>
</svg>
